<svg width="233" height="175" viewBox="0 0 233 175" fill="none" xmlns="http://www.w3.org/2000/svg">
<path d="M1.92 158.08C1.36 157.387 1.08 156.867 1.08 156.52C1.08 156.147 1.38667 155.653 2 155.04C2.64 154.4 3.05333 154.053 3.24 154C3.45333 153.947 3.65333 153.92 3.84 153.92C4.02667 153.92 4.33333 154.04 4.76 154.28C6.73333 155.827 8.46667 156.6 9.96 156.6C11.4533 156.6 12.4267 156.253 12.88 155.56C13.3333 154.867 13.56 153.96 13.56 152.84C13.56 151.72 13.16 150.813 12.36 150.12C11.56 149.427 10.24 148.587 8.4 147.6C6.58667 146.613 5 145.333 3.64 143.76C2.28 142.187 1.6 140.56 1.6 138.88C1.6 135.893 2.37333 133.72 3.92 132.36C5.49333 130.973 7.78667 130.28 10.8 130.28C12.64 130.28 14.44 130.72 16.2 131.6C17.1333 131.973 17.5733 132.36 17.52 132.76C17.4933 132.92 17.4667 133.16 17.44 133.48C16.9333 134.92 16.5467 135.747 16.28 135.96C16.2 136.013 16.0133 136.04 15.72 136.04C15.4533 136.04 14.72 135.827 13.52 135.4C12.32 134.947 11.2933 134.72 10.44 134.72C9.61333 134.72 8.92 135.013 8.36 135.6C7.8 136.187 7.52 137.013 7.52 138.08C7.52 139.147 8 140.12 8.96 141C9.92 141.853 11.4 142.747 13.4 143.68C15.5067 144.773 17.08 145.907 18.12 147.08C19.1867 148.253 19.72 149.827 19.72 151.8C19.72 158.36 16.9467 161.64 11.4 161.64C7.26667 161.64 4.10667 160.453 1.92 158.08ZM28.1384 161C28.1384 161.16 28.1251 161.267 28.0984 161.32C27.9651 161.533 27.4584 161.64 26.5784 161.64C25.6984 161.64 24.8318 161.573 23.9784 161.44C23.1251 161.307 22.6984 161.16 22.6984 161V130.92C22.6984 130.493 23.1651 130.28 24.0984 130.28C25.0318 130.28 25.8051 130.347 26.4184 130.48C27.0318 130.587 27.3518 130.733 27.3784 130.92L28.1384 143.76V161ZM40.0984 161.2C40.0984 161.493 39.6051 161.64 38.6184 161.64C37.6318 161.64 36.6718 161.573 35.7384 161.44C34.8051 161.307 34.2984 161.16 34.2184 161L34.1784 160.96L28.9784 150.12V148.84L33.2184 141.2C33.2451 141.2 33.2584 141.187 33.2584 141.16C33.4984 140.733 34.0318 140.52 34.8584 140.52C36.7518 140.52 37.9651 140.68 38.4984 141C38.6051 141.053 38.6451 141.107 38.6184 141.16L34.0984 148.84L40.0584 161C40.0851 161.08 40.0984 161.147 40.0984 161.2ZM40.7228 141.04C40.7228 140.693 41.2028 140.52 42.1628 140.52C43.1495 140.52 44.0561 140.587 44.8828 140.72C45.7361 140.853 46.1761 141 46.2028 141.16L49.7628 154.84L52.8828 141.16C52.9895 140.733 53.4161 140.52 54.1628 140.52C55.6295 140.52 56.6028 140.6 57.0828 140.76C57.5628 140.92 57.8028 141.04 57.8028 141.12L49.8028 169.96C49.6961 170.387 49.2695 170.6 48.5228 170.6C47.7761 170.6 47.1628 170.573 46.6828 170.52C45.6428 170.387 45.1495 170.2 45.2028 169.96C45.2028 169.88 45.2161 169.813 45.2428 169.76L47.2828 161L40.7628 141.24V141.16C40.7361 141.107 40.7228 141.067 40.7228 141.04ZM65.4813 161C65.4813 161.16 65.4546 161.267 65.4013 161.32C65.2946 161.533 64.8013 161.64 63.9213 161.64C63.0413 161.64 62.1746 161.573 61.3213 161.44C60.4946 161.307 60.0813 161.16 60.0813 161V130.92C60.0813 130.493 60.5479 130.28 61.4813 130.28C62.4146 130.28 63.1879 130.347 63.8013 130.48C64.4146 130.587 64.7346 130.733 64.7613 130.92L65.4813 143.76V161ZM76.2284 161.64C73.3751 161.64 71.3884 160.867 70.2684 159.32C69.1751 157.773 68.6284 155 68.6284 151C68.6284 148.12 68.8818 145.933 69.3884 144.44C69.8951 142.92 70.6551 141.893 71.6684 141.36C72.7084 140.8 74.2284 140.52 76.2284 140.52C78.2284 140.52 79.7351 140.8 80.7484 141.36C81.7884 141.92 82.5484 142.96 83.0284 144.48C83.5084 146 83.7484 148.16 83.7484 150.96C83.7484 151.12 83.7484 151.28 83.7484 151.44C83.7484 151.6 83.4284 151.747 82.7884 151.88C82.1751 152.013 81.4284 152.08 80.5484 152.08H74.3884C74.4418 155.2 74.6684 156.973 75.0684 157.4C75.3084 157.613 75.6951 157.72 76.2284 157.72C79.7218 157.72 82.1084 157.547 83.3884 157.2C83.4418 157.173 83.4818 157.16 83.5084 157.16C83.6951 157.107 83.8418 157.213 83.9484 157.48C84.0818 157.747 84.1484 158.373 84.1484 159.36C84.1484 160.347 83.9351 160.893 83.5084 161C82.4151 161.427 79.9884 161.64 76.2284 161.64ZM74.3884 145.76V148.88H78.4284C78.3218 145.787 78.0151 144.24 77.5084 144.24C76.6018 144.24 75.8551 144.373 75.2684 144.64C74.6818 144.907 74.3884 145.28 74.3884 145.76ZM91.7925 142.76C93.9792 141.267 95.4192 140.52 96.1125 140.52C96.8325 140.52 97.4725 140.653 98.0325 140.92C98.6192 141.187 99.0458 141.453 99.3125 141.72L99.6725 142.08C99.2725 143.787 98.9658 144.853 98.7525 145.28C98.5392 145.707 98.2458 145.92 97.8725 145.92C97.5258 145.92 97.0725 145.773 96.5125 145.48C95.9525 145.187 95.4458 145.04 94.9925 145.04C94.5392 145.04 93.6325 145.453 92.2725 146.28V161C92.2725 161.16 92.2458 161.267 92.1925 161.32C92.0858 161.533 91.5925 161.64 90.7125 161.64C89.8325 161.64 89.0058 161.573 88.2325 161.44C87.4858 161.307 87.1125 161.16 87.1125 161V141.16C87.1125 140.733 87.7125 140.52 88.9125 140.52C90.1125 140.52 90.8058 140.733 90.9925 141.16V141.24L91.7925 142.76ZM103.919 139.8L101.919 139.44L101.319 137.32L102.239 131.96L103.519 130.28L108.319 131.48L103.919 139.8ZM121.592 145.88L121.352 145.8L119.832 145.04C118.685 144.587 117.699 144.36 116.872 144.36C115.672 144.413 115.072 144.987 115.072 146.08C115.072 146.507 115.299 146.853 115.752 147.12C116.232 147.387 116.619 147.6 116.912 147.76C117.205 147.893 117.632 148.093 118.192 148.36C120.192 149.213 121.672 150.16 122.632 151.2C123.619 152.24 124.112 153.267 124.112 154.28C124.112 156.493 123.525 158.28 122.352 159.64C121.179 160.973 119.579 161.64 117.552 161.64C115.552 161.64 113.979 161.373 112.832 160.84C111.685 160.307 110.725 159.547 109.952 158.56C109.845 158.507 109.792 158.427 109.792 158.32C109.792 158.213 109.805 158.08 109.832 157.92C109.885 157.76 110.205 157.333 110.792 156.64C111.379 155.92 111.845 155.56 112.192 155.56C112.299 155.56 112.405 155.613 112.512 155.72C113.925 156.84 115.299 157.4 116.632 157.4C117.379 157.4 117.939 157.187 118.312 156.76C118.685 156.333 118.872 155.867 118.872 155.36C118.872 154.853 118.659 154.44 118.232 154.12C117.805 153.8 117.272 153.493 116.632 153.2C116.019 152.88 115.685 152.707 115.632 152.68C115.579 152.653 115.499 152.613 115.392 152.56C115.312 152.507 115.232 152.467 115.152 152.44C113.792 151.773 112.632 150.947 111.672 149.96C110.739 148.947 110.272 147.827 110.272 146.6C110.272 144.467 110.819 142.92 111.912 141.96C113.032 141 114.792 140.52 117.192 140.52C118.099 140.52 118.965 140.627 119.792 140.84C120.912 141.133 121.712 141.48 122.192 141.88H122.232C122.445 142.013 122.565 142.173 122.592 142.36C122.645 142.547 122.632 142.947 122.552 143.56C122.285 145.107 121.965 145.88 121.592 145.88ZM153.338 156.28C154.005 156.28 154.338 156.707 154.338 157.56C154.338 158.413 154.325 159.053 154.298 159.48C154.192 160.44 153.765 160.987 153.018 161.12C150.645 161.467 148.885 161.64 147.738 161.64C143.765 161.64 141.032 160.52 139.538 158.28C138.045 156.04 137.298 152 137.298 146.16C137.298 141.893 137.618 138.64 138.258 136.4C138.925 134.133 139.978 132.547 141.418 131.64C142.885 130.733 145.058 130.28 147.938 130.28C150.845 130.28 152.965 130.733 154.298 131.64C154.565 131.827 154.698 132.053 154.698 132.32C154.698 132.587 154.565 133.093 154.298 133.84C154.058 134.56 153.818 135.08 153.578 135.4C153.365 135.693 153.138 135.84 152.898 135.84C152.658 135.84 152.472 135.827 152.338 135.8C150.338 135.4 148.605 135.2 147.138 135.2C145.698 135.2 144.752 136 144.298 137.6C143.872 139.2 143.658 141.8 143.658 145.4C143.658 148.973 143.752 151.467 143.938 152.88C144.125 154.293 144.472 155.28 144.978 155.84C145.485 156.4 146.285 156.68 147.378 156.68C148.498 156.68 149.752 156.613 151.138 156.48C152.552 156.347 153.285 156.28 153.338 156.28ZM163.02 161C163.02 161.16 162.994 161.267 162.94 161.32C162.834 161.533 162.34 161.64 161.46 161.64C160.58 161.64 159.714 161.573 158.86 161.44C158.034 161.307 157.62 161.16 157.62 161V130.92C157.62 130.493 158.087 130.28 159.02 130.28C159.954 130.28 160.727 130.347 161.34 130.48C161.954 130.587 162.274 130.733 162.3 130.92L163.02 143.76V161ZM166.168 151C166.168 148.093 166.421 145.893 166.928 144.4C167.434 142.907 168.234 141.893 169.328 141.36C170.421 140.8 172.034 140.52 174.168 140.52C176.301 140.52 177.914 140.8 179.008 141.36C180.101 141.893 180.901 142.907 181.408 144.4C181.914 145.893 182.168 148.093 182.168 151C182.168 155 181.594 157.773 180.448 159.32C179.301 160.867 177.208 161.64 174.168 161.64C171.128 161.64 169.034 160.867 167.888 159.32C166.741 157.773 166.168 155 166.168 151ZM171.608 151C171.608 155.48 172.034 157.72 172.888 157.72C174.061 157.72 174.928 157.533 175.488 157.16C175.781 156.947 175.981 156.56 176.088 156C176.301 154.88 176.408 153.213 176.408 151C176.408 146.573 175.981 144.36 175.128 144.36C173.528 144.36 172.541 144.733 172.168 145.48C171.794 146.2 171.608 148.04 171.608 151ZM196.553 145.88L196.313 145.8L194.793 145.04C193.646 144.587 192.659 144.36 191.833 144.36C190.633 144.413 190.033 144.987 190.033 146.08C190.033 146.507 190.259 146.853 190.713 147.12C191.193 147.387 191.579 147.6 191.873 147.76C192.166 147.893 192.593 148.093 193.153 148.36C195.153 149.213 196.633 150.16 197.593 151.2C198.579 152.24 199.073 153.267 199.073 154.28C199.073 156.493 198.486 158.28 197.313 159.64C196.139 160.973 194.539 161.64 192.513 161.64C190.513 161.64 188.939 161.373 187.793 160.84C186.646 160.307 185.686 159.547 184.913 158.56C184.806 158.507 184.753 158.427 184.753 158.32C184.753 158.213 184.766 158.08 184.793 157.92C184.846 157.76 185.166 157.333 185.753 156.64C186.339 155.92 186.806 155.56 187.153 155.56C187.259 155.56 187.366 155.613 187.473 155.72C188.886 156.84 190.259 157.4 191.593 157.4C192.339 157.4 192.899 157.187 193.273 156.76C193.646 156.333 193.833 155.867 193.833 155.36C193.833 154.853 193.619 154.44 193.193 154.12C192.766 153.8 192.233 153.493 191.593 153.2C190.979 152.88 190.646 152.707 190.593 152.68C190.539 152.653 190.459 152.613 190.353 152.56C190.273 152.507 190.193 152.467 190.113 152.44C188.753 151.773 187.593 150.947 186.633 149.96C185.699 148.947 185.233 147.827 185.233 146.6C185.233 144.467 185.779 142.92 186.873 141.96C187.993 141 189.753 140.52 192.153 140.52C193.059 140.52 193.926 140.627 194.753 140.84C195.873 141.133 196.673 141.48 197.153 141.88H197.193C197.406 142.013 197.526 142.173 197.553 142.36C197.606 142.547 197.593 142.947 197.513 143.56C197.246 145.107 196.926 145.88 196.553 145.88ZM209.314 161.64C206.461 161.64 204.474 160.867 203.354 159.32C202.261 157.773 201.714 155 201.714 151C201.714 148.12 201.968 145.933 202.474 144.44C202.981 142.92 203.741 141.893 204.754 141.36C205.794 140.8 207.314 140.52 209.314 140.52C211.314 140.52 212.821 140.8 213.834 141.36C214.874 141.92 215.634 142.96 216.114 144.48C216.594 146 216.834 148.16 216.834 150.96C216.834 151.12 216.834 151.28 216.834 151.44C216.834 151.6 216.514 151.747 215.874 151.88C215.261 152.013 214.514 152.08 213.634 152.08H207.474C207.528 155.2 207.754 156.973 208.154 157.4C208.394 157.613 208.781 157.72 209.314 157.72C212.808 157.72 215.194 157.547 216.474 157.2C216.528 157.173 216.568 157.16 216.594 157.16C216.781 157.107 216.928 157.213 217.034 157.48C217.168 157.747 217.234 158.373 217.234 159.36C217.234 160.347 217.021 160.893 216.594 161C215.501 161.427 213.074 161.64 209.314 161.64ZM207.474 145.76V148.88H211.514C211.408 145.787 211.101 144.24 210.594 144.24C209.688 144.24 208.941 144.373 208.354 144.64C207.768 144.907 207.474 145.28 207.474 145.76ZM222.118 144.36H218.918C218.598 144.36 218.425 144.293 218.398 144.16C218.345 144 218.318 143.827 218.318 143.64C218.318 142.493 218.518 141.88 218.918 141.8L222.118 141.16L224.358 136.64C224.678 136.24 225.292 136.04 226.198 136.04C226.438 136.04 226.665 136.52 226.878 137.48C227.092 138.44 227.318 139.667 227.558 141.16H231.398C231.825 141.16 232.038 141.693 232.038 142.76C232.038 143.827 231.825 144.36 231.398 144.36H227.518V157.08L228.158 161.6V161.64C228.185 161.8 228.185 161.907 228.158 161.96C228.025 162.173 227.358 162.28 226.158 162.28C224.958 162.28 224.238 162.04 223.998 161.56L222.118 157.76V144.36Z" fill="black"/>
<path d="M57 108.607V2.40742H67.8V108.607H57ZM73.2 108.607V2.40742H89.4V108.607H73.2ZM94.8 108.607V2.40742H100.2V108.607H94.8ZM116.414 108.607V2.40742H121.814V108.607H116.414ZM138.014 108.607V2.40742H143.414V108.607H138.014ZM159.614 108.607V2.40742H170.414V108.607H159.614Z" fill="#49D9D0"/>
<path d="M59 108H58V109H59V108ZM59 1.79999V0.799994H58V1.79999H59ZM69.8 1.79999H70.8V0.799994H69.8V1.79999ZM69.8 108V109H70.8V108H69.8ZM75.2 108H74.2V109H75.2V108ZM75.2 1.79999V0.799994H74.2V1.79999H75.2ZM91.4 1.79999H92.4V0.799994H91.4V1.79999ZM91.4 108V109H92.4V108H91.4ZM96.8 108H95.8V109H96.8V108ZM96.8 1.79999V0.799994H95.8V1.79999H96.8ZM102.2 1.79999H103.2V0.799994H102.2V1.79999ZM102.2 108V109H103.2V108H102.2ZM60 108V1.79999H58V108H60ZM59 2.79999H69.8V0.799994H59V2.79999ZM68.8 1.79999V108H70.8V1.79999H68.8ZM69.8 107H59V109H69.8V107ZM76.2 108V1.79999H74.2V108H76.2ZM75.2 2.79999H91.4V0.799994H75.2V2.79999ZM90.4 1.79999V108H92.4V1.79999H90.4ZM91.4 107H75.2V109H91.4V107ZM97.8 108V1.79999H95.8V108H97.8ZM96.8 2.79999H102.2V0.799994H96.8V2.79999ZM101.2 1.79999V108H103.2V1.79999H101.2ZM102.2 107H96.8V109H102.2V107ZM118.414 108H117.414V109H118.414V108ZM118.414 1.79999V0.799994H117.414V1.79999H118.414ZM123.814 1.79999H124.814V0.799994H123.814V1.79999ZM123.814 108V109H124.814V108H123.814ZM140.014 108H139.014V109H140.014V108ZM140.014 1.79999V0.799994H139.014V1.79999H140.014ZM145.414 1.79999H146.414V0.799994H145.414V1.79999ZM145.414 108V109H146.414V108H145.414ZM161.614 108H160.614V109H161.614V108ZM161.614 1.79999V0.799994H160.614V1.79999H161.614ZM172.414 1.79999H173.414V0.799994H172.414V1.79999ZM172.414 108V109H173.414V108H172.414ZM119.414 108V1.79999H117.414V108H119.414ZM118.414 2.79999H123.814V0.799994H118.414V2.79999ZM122.814 1.79999V108H124.814V1.79999H122.814ZM123.814 107H118.414V109H123.814V107ZM141.014 108V1.79999H139.014V108H141.014ZM140.014 2.79999H145.414V0.799994H140.014V2.79999ZM144.414 1.79999V108H146.414V1.79999H144.414ZM145.414 107H140.014V109H145.414V107ZM162.614 108V1.79999H160.614V108H162.614ZM161.614 2.79999H172.414V0.799994H161.614V2.79999ZM171.414 1.79999V108H173.414V1.79999H171.414ZM172.414 107H161.614V109H172.414V107Z" fill="black"/>
</svg>
